<svg width="512" height="512" xmlns="http://www.w3.org/2000/svg">

 <g>
  <title>background</title>
  <rect fill="none" id="canvas_background" height="402" width="582" y="-1" x="-1"/>
 </g>
 <g>
  <title>Layer 1</title>
  <path fill="#38b2ac" id="svg_2" d="m26.002,26.001l0,459.998l459.996,0l0,-459.998l-459.996,0zm250.329,358.758c0,44.767 -26.286,65.2 -64.586,65.2c-34.601,0 -54.623,-17.865 -64.892,-39.529l35.218,-21.255c6.777,12.013 12.938,22.177 27.826,22.177c14.169,0 23.207,-5.544 23.207,-27.208l0,-146.934l43.227,0l0,147.549l0,0zm102.267,65.2c-40.147,0 -66.124,-19.099 -78.754,-44.151l35.219,-20.332c9.241,15.095 21.356,26.286 42.611,26.286c17.866,0 29.364,-8.932 29.364,-21.355c0,-14.787 -11.704,-20.021 -31.52,-28.75l-10.781,-4.62c-31.214,-13.246 -51.853,-29.983 -51.853,-65.2c0,-32.447 24.745,-57.09 63.248,-57.09c27.518,0 47.232,9.549 61.402,34.603l-33.679,21.562c-7.392,-13.246 -15.401,-18.481 -27.825,-18.481c-12.63,0 -20.639,8.01 -20.639,18.481c0,12.938 8.009,18.176 26.594,26.285l10.78,4.621c36.759,15.71 57.397,31.832 57.397,67.974c0.002,38.81 -30.597,60.167 -71.564,60.167l0,0z"/>
 </g>
</svg>

